<svg width="14" height="14" viewBox="0 0 14 14" fill="none" xmlns="http://www.w3.org/2000/svg">
<path d="M13 0.99994C12.8124 0.812469 12.5581 0.707153 12.293 0.707153C12.0278 0.707153 11.7735 0.812469 11.586 0.99994L6.99997 5.58594L2.41397 0.99994C2.22644 0.812469 1.97213 0.707153 1.70697 0.707153C1.44181 0.707153 1.1875 0.812469 0.99997 0.99994C0.812499 1.18747 0.707184 1.44178 0.707184 1.70694C0.707184 1.9721 0.812499 2.22641 0.99997 2.41394L5.58597 6.99994L0.99997 11.5859C0.812499 11.7735 0.707184 12.0278 0.707184 12.2929C0.707184 12.5581 0.812499 12.8124 0.99997 12.9999C1.1875 13.1874 1.44181 13.2927 1.70697 13.2927C1.97213 13.2927 2.22644 13.1874 2.41397 12.9999L6.99997 8.41394L11.586 12.9999C11.7735 13.1874 12.0278 13.2927 12.293 13.2927C12.5581 13.2927 12.8124 13.1874 13 12.9999C13.1874 12.8124 13.2928 12.5581 13.2928 12.2929C13.2928 12.0278 13.1874 11.7735 13 11.5859L8.41397 6.99994L13 2.41394C13.1874 2.22641 13.2928 1.9721 13.2928 1.70694C13.2928 1.44178 13.1874 1.18747 13 0.99994V0.99994Z" fill="white"/>
</svg>
