<svg width="34" height="34" viewBox="0 0 34 34" fill="none" xmlns="http://www.w3.org/2000/svg">
<g clip-path="url(#clip0_69_111)">
<path d="M17 31.4375C13.1709 31.4375 9.4987 29.9164 6.79115 27.2089C4.08359 24.5013 2.5625 20.8291 2.5625 17C2.5625 13.1709 4.08359 9.4987 6.79115 6.79115C9.4987 4.08359 13.1709 2.5625 17 2.5625C20.8291 2.5625 24.5013 4.08359 27.2089 6.79115C29.9164 9.4987 31.4375 13.1709 31.4375 17C31.4375 20.8291 29.9164 24.5013 27.2089 27.2089C24.5013 29.9164 20.8291 31.4375 17 31.4375ZM17 33.5C21.3761 33.5 25.5729 31.7616 28.6673 28.6673C31.7616 25.5729 33.5 21.3761 33.5 17C33.5 12.6239 31.7616 8.42709 28.6673 5.33274C25.5729 2.23839 21.3761 0.5 17 0.5C12.6239 0.5 8.42709 2.23839 5.33274 5.33274C2.23839 8.42709 0.5 12.6239 0.5 17C0.5 21.3761 2.23839 25.5729 5.33274 28.6673C8.42709 31.7616 12.6239 33.5 17 33.5Z" fill="url(#paint0_linear_69_111)"/>
<path d="M17 8.75C17.2735 8.75 17.5358 8.85865 17.7292 9.05205C17.9226 9.24544 18.0312 9.50775 18.0312 9.78125V15.9688H24.2188C24.4923 15.9688 24.7546 16.0774 24.948 16.2708C25.1414 16.4642 25.25 16.7265 25.25 17C25.25 17.2735 25.1414 17.5358 24.948 17.7292C24.7546 17.9226 24.4923 18.0312 24.2188 18.0312H18.0312V24.2188C18.0312 24.4923 17.9226 24.7546 17.7292 24.948C17.5358 25.1414 17.2735 25.25 17 25.25C16.7265 25.25 16.4642 25.1414 16.2708 24.948C16.0774 24.7546 15.9688 24.4923 15.9688 24.2188V18.0312H9.78125C9.50775 18.0312 9.24544 17.9226 9.05205 17.7292C8.85865 17.5358 8.75 17.2735 8.75 17C8.75 16.7265 8.85865 16.4642 9.05205 16.2708C9.24544 16.0774 9.50775 15.9688 9.78125 15.9688H15.9688V9.78125C15.9688 9.50775 16.0774 9.24544 16.2708 9.05205C16.4642 8.85865 16.7265 8.75 17 8.75Z" fill="url(#paint1_linear_69_111)"/>
</g>
<defs>
<linearGradient id="paint0_linear_69_111" x1="17" y1="0.5" x2="17" y2="33.5" gradientUnits="userSpaceOnUse">
<stop stop-color="#9644FE"/>
<stop offset="1" stop-color="#FF7008"/>
</linearGradient>
<linearGradient id="paint1_linear_69_111" x1="17" y1="8.75" x2="17" y2="25.25" gradientUnits="userSpaceOnUse">
<stop stop-color="#9644FE"/>
<stop offset="1" stop-color="#FF7008"/>
</linearGradient>
<clipPath id="clip0_69_111">
<rect width="33" height="33" fill="white" transform="translate(0.5 0.5)"/>
</clipPath>
</defs>
</svg>
