<svg width="32" height="26" viewBox="0 0 32 26" fill="none" xmlns="http://www.w3.org/2000/svg">
<g clip-path="url(#clip0_8_174)">
<path d="M13.745 1.74178C12.34 0.314832 10.06 0.314832 8.65501 1.74178L1.715 8.79022C0.310005 10.2172 0.310005 12.5328 1.715 13.9598L8.65501 21.0082C10.06 22.4351 12.34 22.4351 13.745 21.0082L20.685 13.9598C22.09 12.5328 22.09 10.2172 20.685 8.79022L13.745 1.74178ZM10 11.375C10 11.0518 10.1264 10.7418 10.3515 10.5132C10.5765 10.2846 10.8817 10.1562 11.2 10.1562C11.5183 10.1562 11.8235 10.2846 12.0485 10.5132C12.2736 10.7418 12.4 11.0518 12.4 11.375C12.4 11.6982 12.2736 12.0082 12.0485 12.2368C11.8235 12.4653 11.5183 12.5937 11.2 12.5937C10.8817 12.5937 10.5765 12.4653 10.3515 12.2368C10.1264 12.0082 10 11.6982 10 11.375ZM4.80001 10.1562C5.11826 10.1562 5.42349 10.2846 5.64853 10.5132C5.87358 10.7418 6.00001 11.0518 6.00001 11.375C6.00001 11.6982 5.87358 12.0082 5.64853 12.2368C5.42349 12.4653 5.11826 12.5937 4.80001 12.5937C4.48175 12.5937 4.17652 12.4653 3.95148 12.2368C3.72643 12.0082 3.60001 11.6982 3.60001 11.375C3.60001 11.0518 3.72643 10.7418 3.95148 10.5132C4.17652 10.2846 4.48175 10.1562 4.80001 10.1562ZM11.2 19.0937C10.8817 19.0937 10.5765 18.9653 10.3515 18.7368C10.1264 18.5082 10 18.1982 10 17.875C10 17.5518 10.1264 17.2418 10.3515 17.0132C10.5765 16.7846 10.8817 16.6562 11.2 16.6562C11.5183 16.6562 11.8235 16.7846 12.0485 17.0132C12.2736 17.2418 12.4 17.5518 12.4 17.875C12.4 18.1982 12.2736 18.5082 12.0485 18.7368C11.8235 18.9653 11.5183 19.0937 11.2 19.0937ZM17.6 10.1562C17.9183 10.1562 18.2235 10.2846 18.4485 10.5132C18.6736 10.7418 18.8 11.0518 18.8 11.375C18.8 11.6982 18.6736 12.0082 18.4485 12.2368C18.2235 12.4653 17.9183 12.5937 17.6 12.5937C17.2817 12.5937 16.9765 12.4653 16.7515 12.2368C16.5264 12.0082 16.4 11.6982 16.4 11.375C16.4 11.0518 16.5264 10.7418 16.7515 10.5132C16.9765 10.2846 17.2817 10.1562 17.6 10.1562ZM11.2 6.09374C10.8817 6.09374 10.5765 5.96533 10.3515 5.73677C10.1264 5.50821 10 5.19822 10 4.87499C10 4.55176 10.1264 4.24176 10.3515 4.0132C10.5765 3.78464 10.8817 3.65624 11.2 3.65624C11.5183 3.65624 11.8235 3.78464 12.0485 4.0132C12.2736 4.24176 12.4 4.55176 12.4 4.87499C12.4 5.19822 12.2736 5.50821 12.0485 5.73677C11.8235 5.96533 11.5183 6.09374 11.2 6.09374ZM16 22.75C16 24.5426 17.435 26 19.2 26H28.8C30.565 26 32 24.5426 32 22.75V13C32 11.2074 30.565 9.74999 28.8 9.74999H23.085C23.665 11.5781 23.24 13.6601 21.815 15.1074L16 21.0133V22.75ZM24 16.6562C24.3183 16.6562 24.6235 16.7846 24.8485 17.0132C25.0736 17.2418 25.2 17.5518 25.2 17.875C25.2 18.1982 25.0736 18.5082 24.8485 18.7368C24.6235 18.9653 24.3183 19.0937 24 19.0937C23.6817 19.0937 23.3765 18.9653 23.1515 18.7368C22.9264 18.5082 22.8 18.1982 22.8 17.875C22.8 17.5518 22.9264 17.2418 23.1515 17.0132C23.3765 16.7846 23.6817 16.6562 24 16.6562Z" fill="white"/>
</g>
<defs>
<clipPath id="clip0_8_174">
<rect width="32" height="26" fill="white"/>
</clipPath>
</defs>
</svg>
